<svg width="1776" height="418" xmlns="http://www.w3.org/2000/svg"><defs><linearGradient x1="0%" y1="47.23%" y2="52.77%" id="a"><stop stop-color="#E08E37" offset="0%"/><stop stop-color="#F6873C" offset="52.826%"/><stop stop-color="#F05033" offset="99.409%"/></linearGradient><linearGradient x1="59.303%" y1="-3.568%" x2="40.592%" y2="103.581%" id="b"><stop stop-color="#FAAE42" offset="0%"/><stop stop-color="#EF3E31" offset="100%"/></linearGradient><linearGradient x1="59.84%" y1="5.32%" x2="43.622%" y2="94.464%" id="c"><stop stop-color="#E39F3A" offset="0%"/><stop stop-color="#D33929" offset="100%"/></linearGradient><linearGradient x1="59.404%" y1="-2.921%" x2="40.49%" y2="102.933%" id="d"><stop stop-color="#FAAE42" offset="0%"/><stop stop-color="#EF3E31" offset="100%"/></linearGradient></defs><g fill="none" fill-rule="evenodd"><path d="M92 0h1592c50.81 0 92 41.19 92 92v234c0 50.81-41.19 92-92 92H92c-50.81 0-92-41.19-92-92V92C0 41.19 41.19 0 92 0z" fill="url(#a)"/><g fill-rule="nonzero"><path d="M562.136 201v-60.583H539V125h63v15.417h-23.136V201h-16.728zm67.206 1c-8.814 0-16.074-2.778-21.781-8.333C601.854 188.11 599 180.889 599 172c0-8.387 2.71-15.484 8.127-21.29 5.419-5.807 12.282-8.71 20.59-8.71 9.175 0 16.182 3.01 21.023 9.032 4.84 6.022 7.26 13.441 7.26 22.258 0 .86-.072 2.294-.217 4.301h-40.42c.795 3.656 2.42 6.452 4.877 8.387 2.456 1.936 5.562 2.904 9.319 2.904 5.13 0 9.825-1.972 14.087-5.914l9.428 8.28C647.222 198.415 639.312 202 629.342 202zM615 167h25c-.51-3.65-1.838-6.561-3.985-8.737-2.147-2.175-4.93-3.263-8.351-3.263-3.348 0-6.132 1.07-8.352 3.21-2.22 2.14-3.657 5.07-4.312 8.79zm72.85 35c-9.147 0-17.43-2.924-24.85-8.773l7.023-10.83c6.339 4.621 12.425 6.932 18.26 6.932 4.61 0 6.915-1.517 6.915-4.55a3.76 3.76 0 0 0-.162-1.082 2.305 2.305 0 0 0-.595-.975 9.853 9.853 0 0 0-.918-.812c-.324-.253-.756-.506-1.297-.758-.54-.253-1.008-.47-1.404-.65-.396-.18-.955-.397-1.675-.65a33.894 33.894 0 0 0-1.837-.596c-.504-.144-1.188-.343-2.053-.595-.864-.253-1.548-.452-2.052-.596-2.45-.722-4.52-1.462-6.213-2.22-1.693-.758-3.476-1.805-5.348-3.141a12.963 12.963 0 0 1-4.268-5.09c-.973-2.058-1.459-4.459-1.459-7.202 0-5.704 2.017-10.199 6.05-13.484 4.035-3.285 9.077-4.928 15.127-4.928 7.78 0 14.983 2.238 21.61 6.715l-6.267 11.372c-6.123-3.61-11.345-5.416-15.667-5.416-4.034 0-6.05 1.408-6.05 4.224 0 1.95 3.313 4.044 9.94 6.282.792.289 1.404.505 1.837.65 1.944.65 3.601 1.263 4.97 1.84 1.368.578 2.917 1.373 4.646 2.384 1.728 1.01 3.115 2.075 4.16 3.194 1.044 1.12 1.926 2.546 2.647 4.278.72 1.733 1.08 3.647 1.08 5.74 0 6.21-2.035 10.885-6.105 14.026-4.07 3.14-9.418 4.711-16.044 4.711zm54 0c-9.147 0-17.43-2.924-24.85-8.773l7.023-10.83c6.339 4.621 12.425 6.932 18.26 6.932 4.61 0 6.915-1.517 6.915-4.55a3.76 3.76 0 0 0-.162-1.082 2.305 2.305 0 0 0-.595-.975 9.853 9.853 0 0 0-.918-.812c-.324-.253-.756-.506-1.297-.758-.54-.253-1.008-.47-1.404-.65-.396-.18-.955-.397-1.675-.65a33.894 33.894 0 0 0-1.837-.596c-.504-.144-1.188-.343-2.053-.595-.864-.253-1.548-.452-2.052-.596-2.45-.722-4.52-1.462-6.213-2.22-1.693-.758-3.476-1.805-5.348-3.141a12.963 12.963 0 0 1-4.268-5.09c-.973-2.058-1.459-4.459-1.459-7.202 0-5.704 2.017-10.199 6.05-13.484 4.035-3.285 9.077-4.928 15.127-4.928 7.78 0 14.983 2.238 21.61 6.715l-6.267 11.372c-6.123-3.61-11.345-5.416-15.667-5.416-4.034 0-6.05 1.408-6.05 4.224 0 1.95 3.313 4.044 9.94 6.282.792.289 1.404.505 1.837.65 1.944.65 3.601 1.263 4.97 1.84 1.368.578 2.917 1.373 4.646 2.384 1.728 1.01 3.115 2.075 4.16 3.194 1.044 1.12 1.926 2.546 2.647 4.278.72 1.733 1.08 3.647 1.08 5.74 0 6.21-2.035 10.885-6.105 14.026-4.07 3.14-9.418 4.711-16.044 4.711zm61.492 0c-8.814 0-16.074-2.778-21.781-8.333C775.854 188.11 773 180.889 773 172c0-8.387 2.71-15.484 8.127-21.29 5.419-5.807 12.282-8.71 20.59-8.71 9.175 0 16.182 3.01 21.023 9.032 4.84 6.022 7.26 13.441 7.26 22.258 0 .86-.072 2.294-.217 4.301h-40.42c.795 3.656 2.42 6.452 4.877 8.387 2.456 1.936 5.562 2.904 9.319 2.904 5.13 0 9.825-1.972 14.087-5.914l9.428 8.28C821.222 198.415 813.312 202 803.342 202zM789 167h25c-.51-3.65-1.838-6.561-3.985-8.737-2.147-2.175-4.93-3.263-8.351-3.263-3.348 0-6.132 1.07-8.352 3.21-2.22 2.14-3.657 5.07-4.312 8.79zm53 34v-57.899h16.47v11.666c3.757-8.857 9.933-13.106 18.53-12.746v17.175h-.867c-5.635 0-9.987 1.71-13.057 5.131-3.07 3.42-4.605 8.516-4.605 15.285V201H842zm58.78 1c-5.661 0-10.373-1.594-14.136-4.783-3.763-3.188-5.644-7.608-5.644-13.26 0-6.16 2.096-10.798 6.289-13.914 4.193-3.115 9.837-4.673 16.932-4.673 4.802 0 9.496.797 14.083 2.39v-.977c0-7.102-4.12-10.653-12.363-10.653-4.945 0-10.249 1.051-15.91 3.153l-4.086-12.61c7.024-3.115 14.478-4.673 22.361-4.673 8.672 0 15.158 2.174 19.459 6.522 4.157 4.203 6.235 10.398 6.235 18.587v33.804h-15.803v-6.304C913.825 199.536 908.02 202 900.78 202zm5.26-12c3.848 0 6.97-.94 9.366-2.82 2.396-1.879 3.594-4.272 3.594-7.18v-2.872c-3.122-1.419-6.644-2.128-10.564-2.128-3.63 0-6.444.691-8.441 2.074-1.997 1.383-2.995 3.387-2.995 6.011 0 2.128.835 3.812 2.505 5.053S903.353 190 906.04 190zm70.213 12c-8.675 0-15.886-2.903-21.633-8.71-5.747-5.806-8.62-12.903-8.62-21.29 0-8.315 2.892-15.394 8.675-21.237 5.783-5.842 13.048-8.763 21.795-8.763 9.325 0 17.024 3.37 23.096 10.108l-9.65 9.677c-4.049-3.8-8.567-5.699-13.555-5.699-4.048 0-7.41 1.541-10.084 4.624-2.675 3.082-4.012 6.846-4.012 11.29 0 4.516 1.355 8.297 4.066 11.344 2.711 3.047 6.271 4.57 10.681 4.57 4.554 0 9-2.043 13.337-6.13l9.651 9.678c-3.18 3.441-6.578 6.058-10.193 7.85-3.614 1.792-8.132 2.688-13.554 2.688zm53.548 0c-5.41 0-9.574-1.32-12.495-3.96-2.922-2.64-4.382-7.144-4.382-13.51v-27.56H1006v-14.105h6.924V128h16.444v14.865H1043v14.106h-13.632v24.847c0 3.762 1.767 5.642 5.302 5.642 2.885 0 5.59-.687 8.114-2.061v13.237c-3.75 2.243-8.078 3.364-12.983 3.364zm24.199-2v-17h18v17h-18zm61.166 2c-12.419 0-23.14-4.044-32.166-12.133l9.856-11.809c7.436 6.14 14.982 9.209 22.635 9.209 3.393 0 6.065-.65 8.014-1.95 1.95-1.3 2.925-3.106 2.925-5.417 0-2.167-1.011-3.918-3.033-5.254-2.022-1.336-6.1-2.799-12.238-4.388-4.332-1.083-7.834-2.148-10.506-3.195a35.018 35.018 0 0 1-7.635-4.171c-2.419-1.734-4.188-3.918-5.307-6.554-1.119-2.637-1.679-5.796-1.679-9.48 0-6.86 2.473-12.386 7.42-16.575 4.945-4.189 11.317-6.283 19.115-6.283 10.758 0 20.144 3.214 28.159 9.642l-8.665 12.566c-7.148-4.983-13.718-7.475-19.71-7.475-3.106 0-5.506.632-7.203 1.896-1.697 1.264-2.545 2.907-2.545 4.93 0 2.455 1.047 4.297 3.14 5.524 2.095 1.228 6.499 2.709 13.214 4.442 8.23 2.167 14.296 4.947 18.195 8.342 3.899 3.394 5.848 8.27 5.848 14.625 0 7.366-2.545 13.126-7.635 17.279-5.09 4.153-11.823 6.229-20.199 6.229zm51.694-1L1149 142.218h16.67l9.308 35.378L1185.91 142h14.18l11.04 35.705 9.526-35.487H1237L1218.924 201h-14.83l-11.148-35.814L1181.58 201h-14.721zm81.14-65v-15h17v15h-17zm0 65v-58h16v58h-16zm34.73 0v-44.07H1276v-13.57h6.73v-3.69c0-6.296 1.531-11 4.593-14.111 2.992-3.04 7.371-4.559 13.14-4.559 4.344 0 8.19.543 11.537 1.628v13.677c-2.564-.94-5.02-1.41-7.37-1.41-3.918 0-5.876 2.098-5.876 6.295v2.28h13.14v13.46h-12.927V201h-16.237zm58.071 1c-5.41 0-9.574-1.32-12.495-3.96-2.922-2.64-4.382-7.144-4.382-13.51v-27.56H1317v-14.105h6.924V128h16.444v14.865H1354v14.106h-13.632v24.847c0 3.762 1.767 5.642 5.302 5.642 2.885 0 5.59-.687 8.114-2.061v13.237c-3.75 2.243-8.078 3.364-12.983 3.364z" fill="#CE6230"/><path d="M561.136 200v-60.583H538V124h63v15.417h-23.136V200h-16.728zm67.206 1c-8.814 0-16.074-2.778-21.781-8.333C600.854 187.11 598 179.889 598 171c0-8.387 2.71-15.484 8.127-21.29 5.419-5.807 12.282-8.71 20.59-8.71 9.175 0 16.182 3.01 21.023 9.032 4.84 6.022 7.26 13.441 7.26 22.258 0 .86-.072 2.294-.217 4.301h-40.42c.795 3.656 2.42 6.452 4.877 8.387 2.456 1.936 5.562 2.904 9.319 2.904 5.13 0 9.825-1.972 14.087-5.914l9.428 8.28C646.222 197.415 638.312 201 628.342 201zM614 166h25c-.51-3.65-1.838-6.561-3.985-8.737-2.147-2.175-4.93-3.263-8.351-3.263-3.348 0-6.132 1.07-8.352 3.21-2.22 2.14-3.657 5.07-4.312 8.79zm72.85 35c-9.147 0-17.43-2.924-24.85-8.773l7.023-10.83c6.339 4.621 12.425 6.932 18.26 6.932 4.61 0 6.915-1.517 6.915-4.55a3.76 3.76 0 0 0-.162-1.082 2.305 2.305 0 0 0-.595-.975 9.853 9.853 0 0 0-.918-.812c-.324-.253-.756-.506-1.297-.758-.54-.253-1.008-.47-1.404-.65-.396-.18-.955-.397-1.675-.65a33.894 33.894 0 0 0-1.837-.596c-.504-.144-1.188-.343-2.053-.595-.864-.253-1.548-.452-2.052-.596-2.45-.722-4.52-1.462-6.213-2.22-1.693-.758-3.476-1.805-5.348-3.141a12.963 12.963 0 0 1-4.268-5.09c-.973-2.058-1.459-4.459-1.459-7.202 0-5.704 2.017-10.199 6.05-13.484 4.035-3.285 9.077-4.928 15.127-4.928 7.78 0 14.983 2.238 21.61 6.715l-6.267 11.372c-6.123-3.61-11.345-5.416-15.667-5.416-4.034 0-6.05 1.408-6.05 4.224 0 1.95 3.313 4.044 9.94 6.282.792.289 1.404.505 1.837.65 1.944.65 3.601 1.263 4.97 1.84 1.368.578 2.917 1.373 4.646 2.384 1.728 1.01 3.115 2.075 4.16 3.194 1.044 1.12 1.926 2.546 2.647 4.278.72 1.733 1.08 3.647 1.08 5.74 0 6.21-2.035 10.885-6.105 14.026-4.07 3.14-9.418 4.711-16.044 4.711zm54 0c-9.147 0-17.43-2.924-24.85-8.773l7.023-10.83c6.339 4.621 12.425 6.932 18.26 6.932 4.61 0 6.915-1.517 6.915-4.55a3.76 3.76 0 0 0-.162-1.082 2.305 2.305 0 0 0-.595-.975 9.853 9.853 0 0 0-.918-.812c-.324-.253-.756-.506-1.297-.758-.54-.253-1.008-.47-1.404-.65-.396-.18-.955-.397-1.675-.65a33.894 33.894 0 0 0-1.837-.596c-.504-.144-1.188-.343-2.053-.595-.864-.253-1.548-.452-2.052-.596-2.45-.722-4.52-1.462-6.213-2.22-1.693-.758-3.476-1.805-5.348-3.141a12.963 12.963 0 0 1-4.268-5.09c-.973-2.058-1.459-4.459-1.459-7.202 0-5.704 2.017-10.199 6.05-13.484 4.035-3.285 9.077-4.928 15.127-4.928 7.78 0 14.983 2.238 21.61 6.715l-6.267 11.372c-6.123-3.61-11.345-5.416-15.667-5.416-4.034 0-6.05 1.408-6.05 4.224 0 1.95 3.313 4.044 9.94 6.282.792.289 1.404.505 1.837.65 1.944.65 3.601 1.263 4.97 1.84 1.368.578 2.917 1.373 4.646 2.384 1.728 1.01 3.115 2.075 4.16 3.194 1.044 1.12 1.926 2.546 2.647 4.278.72 1.733 1.08 3.647 1.08 5.74 0 6.21-2.035 10.885-6.105 14.026-4.07 3.14-9.418 4.711-16.044 4.711zm61.492 0c-8.814 0-16.074-2.778-21.781-8.333C774.854 187.11 772 179.889 772 171c0-8.387 2.71-15.484 8.127-21.29 5.419-5.807 12.282-8.71 20.59-8.71 9.175 0 16.182 3.01 21.023 9.032 4.84 6.022 7.26 13.441 7.26 22.258 0 .86-.072 2.294-.217 4.301h-40.42c.795 3.656 2.42 6.452 4.877 8.387 2.456 1.936 5.562 2.904 9.319 2.904 5.13 0 9.825-1.972 14.087-5.914l9.428 8.28C820.222 197.415 812.312 201 802.342 201zM788 166h25c-.51-3.65-1.838-6.561-3.985-8.737-2.147-2.175-4.93-3.263-8.351-3.263-3.348 0-6.132 1.07-8.352 3.21-2.22 2.14-3.657 5.07-4.312 8.79zm53 34v-57.899h16.47v11.666c3.757-8.857 9.933-13.106 18.53-12.746v17.175h-.867c-5.635 0-9.987 1.71-13.057 5.131-3.07 3.42-4.605 8.516-4.605 15.285V200H841zm58.78 1c-5.661 0-10.373-1.594-14.136-4.783-3.763-3.188-5.644-7.608-5.644-13.26 0-6.16 2.096-10.798 6.289-13.914 4.193-3.115 9.837-4.673 16.932-4.673 4.802 0 9.496.797 14.083 2.39v-.977c0-7.102-4.12-10.653-12.363-10.653-4.945 0-10.249 1.051-15.91 3.153l-4.086-12.61c7.024-3.115 14.478-4.673 22.361-4.673 8.672 0 15.158 2.174 19.459 6.522 4.157 4.203 6.235 10.398 6.235 18.587v33.804h-15.803v-6.304C912.825 198.536 907.02 201 899.78 201zm5.26-12c3.848 0 6.97-.94 9.366-2.82 2.396-1.879 3.594-4.272 3.594-7.18v-2.872c-3.122-1.419-6.644-2.128-10.564-2.128-3.63 0-6.444.691-8.441 2.074-1.997 1.383-2.995 3.387-2.995 6.011 0 2.128.835 3.812 2.505 5.053S902.353 189 905.04 189zm70.213 12c-8.675 0-15.886-2.903-21.633-8.71-5.747-5.806-8.62-12.903-8.62-21.29 0-8.315 2.892-15.394 8.675-21.237 5.783-5.842 13.048-8.763 21.795-8.763 9.325 0 17.024 3.37 23.096 10.108l-9.65 9.677c-4.049-3.8-8.567-5.699-13.555-5.699-4.048 0-7.41 1.541-10.084 4.624-2.675 3.082-4.012 6.846-4.012 11.29 0 4.516 1.355 8.297 4.066 11.344 2.711 3.047 6.271 4.57 10.681 4.57 4.554 0 9-2.043 13.337-6.13l9.651 9.678c-3.18 3.441-6.578 6.058-10.193 7.85-3.614 1.792-8.132 2.688-13.554 2.688zm53.548 0c-5.41 0-9.574-1.32-12.495-3.96-2.922-2.64-4.382-7.144-4.382-13.51v-27.56H1005v-14.105h6.924V127h16.444v14.865H1042v14.106h-13.632v24.847c0 3.762 1.767 5.642 5.302 5.642 2.885 0 5.59-.687 8.114-2.061v13.237c-3.75 2.243-8.078 3.364-12.983 3.364zm24.199-2v-17h18v17h-18zm61.166 2c-12.419 0-23.14-4.044-32.166-12.133l9.856-11.809c7.436 6.14 14.982 9.209 22.635 9.209 3.393 0 6.065-.65 8.014-1.95 1.95-1.3 2.925-3.106 2.925-5.417 0-2.167-1.011-3.918-3.033-5.254-2.022-1.336-6.1-2.799-12.238-4.388-4.332-1.083-7.834-2.148-10.506-3.195a35.018 35.018 0 0 1-7.635-4.171c-2.419-1.734-4.188-3.918-5.307-6.554-1.119-2.637-1.679-5.796-1.679-9.48 0-6.86 2.473-12.386 7.42-16.575 4.945-4.189 11.317-6.283 19.115-6.283 10.758 0 20.144 3.214 28.159 9.642l-8.665 12.566c-7.148-4.983-13.718-7.475-19.71-7.475-3.106 0-5.506.632-7.203 1.896-1.697 1.264-2.545 2.907-2.545 4.93 0 2.455 1.047 4.297 3.14 5.524 2.095 1.228 6.499 2.709 13.214 4.442 8.23 2.167 14.296 4.947 18.195 8.342 3.899 3.394 5.848 8.27 5.848 14.625 0 7.366-2.545 13.126-7.635 17.279-5.09 4.153-11.823 6.229-20.199 6.229zm51.694-1L1148 141.218h16.67l9.308 35.378L1184.91 141h14.18l11.04 35.705 9.526-35.487H1236L1217.924 200h-14.83l-11.148-35.814L1180.58 200h-14.721zm81.14-65v-15h17v15h-17zm0 65v-58h16v58h-16zm34.73 0v-44.07H1275v-13.57h6.73v-3.69c0-6.296 1.531-11 4.593-14.111 2.992-3.04 7.371-4.559 13.14-4.559 4.344 0 8.19.543 11.537 1.628v13.677c-2.564-.94-5.02-1.41-7.37-1.41-3.918 0-5.876 2.098-5.876 6.295v2.28h13.14v13.46h-12.927V200h-16.237zm58.071 1c-5.41 0-9.574-1.32-12.495-3.96-2.922-2.64-4.382-7.144-4.382-13.51v-27.56H1316v-14.105h6.924V127h16.444v14.865H1353v14.106h-13.632v24.847c0 3.762 1.767 5.642 5.302 5.642 2.885 0 5.59-.687 8.114-2.061v13.237c-3.75 2.243-8.078 3.364-12.983 3.364z" fill="#FFF"/><path d="M551.564 291c-3.385 0-6.325-1.307-8.82-3.921-2.496-2.614-3.744-6.15-3.744-10.605 0-4.421 1.24-7.93 3.718-10.527 2.479-2.596 5.427-3.894 8.846-3.894 3.692 0 6.77 1.631 9.23 4.894V252H567v38.421h-6.205v-4.632c-2.393 3.474-5.47 5.211-9.23 5.211zm-4.256-7.488c1.574 1.659 3.462 2.488 5.666 2.488 2.203 0 4.092-.847 5.665-2.541 1.574-1.694 2.361-3.865 2.361-6.512 0-2.612-.787-4.756-2.36-6.432-1.574-1.677-3.463-2.515-5.666-2.515-2.238 0-4.127.82-5.666 2.462-1.539 1.64-2.308 3.838-2.308 6.59 0 2.648.77 4.8 2.308 6.46zM573 291l16.033-37h5.934L611 291h-6.767l-3.696-8.87h-17.23l-3.748 8.87H573zm12-15h13l-6.527-15L585 276zm31 23v-36.418h6.205v4.658c2.393-3.493 5.453-5.24 9.18-5.24 3.418 0 6.376 1.314 8.871 3.943 2.496 2.63 3.744 6.185 3.744 10.666 0 4.412-1.248 7.932-3.744 10.56-2.495 2.63-5.453 3.944-8.871 3.944-3.727 0-6.787-1.64-9.18-4.923V299H616zm14.079-13c2.238 0 4.118-.83 5.639-2.488 1.521-1.66 2.282-3.847 2.282-6.565 0-2.647-.77-4.8-2.308-6.459-1.539-1.659-3.41-2.488-5.613-2.488-2.204 0-4.1.847-5.692 2.541-1.591 1.694-2.387 3.865-2.387 6.512 0 2.612.796 4.756 2.387 6.432 1.591 1.677 3.488 2.515 5.692 2.515zM651 299v-36.418h6.205v4.658c2.393-3.493 5.453-5.24 9.18-5.24 3.418 0 6.376 1.314 8.871 3.943 2.496 2.63 3.744 6.185 3.744 10.666 0 4.412-1.248 7.932-3.744 10.56-2.495 2.63-5.453 3.944-8.871 3.944-3.727 0-6.787-1.64-9.18-4.923V299H651zm14.079-13c2.238 0 4.118-.83 5.639-2.488 1.521-1.66 2.282-3.847 2.282-6.565 0-2.647-.77-4.8-2.308-6.459-1.539-1.659-3.41-2.488-5.613-2.488-2.204 0-4.1.847-5.692 2.541-1.591 1.694-2.387 3.865-2.387 6.512 0 2.612.796 4.756 2.387 6.432 1.591 1.677 3.488 2.515 5.692 2.515zm30.654 5c-4.33 0-8.24-1.396-11.733-4.188l2.829-4.348c3.003 2.298 6.023 3.446 9.061 3.446 1.362 0 2.419-.273 3.17-.821.75-.548 1.126-1.317 1.126-2.307 0-.494-.131-.927-.393-1.298-.262-.372-.725-.716-1.388-1.034-.664-.318-1.222-.548-1.676-.69-.454-.14-1.205-.37-2.253-.689l-.471-.159a29.804 29.804 0 0 1-2.488-.822 19.638 19.638 0 0 1-2.279-1.086c-.838-.46-1.519-.963-2.043-1.511-.524-.548-.96-1.246-1.31-2.094-.348-.849-.523-1.803-.523-2.863 0-2.58.934-4.648 2.802-6.203 1.869-1.555 4.217-2.333 7.046-2.333 3.596 0 6.984 1.06 10.161 3.181l-2.514 4.56c-2.863-1.768-5.465-2.651-7.805-2.651-1.222 0-2.173.265-2.854.795s-1.022 1.237-1.022 2.12c0 .601.306 1.15.917 1.644.611.495 1.222.857 1.833 1.087.611.23 1.598.574 2.96 1.034.07.035.157.07.262.106a.853.853 0 0 0 .262.053c1.222.388 2.252.768 3.09 1.14.838.37 1.72.874 2.645 1.51.926.637 1.633 1.423 2.122 2.36.489.936.733 2.023.733 3.26 0 2.828-.96 5.001-2.881 6.521-1.92 1.52-4.382 2.28-7.386 2.28zM729 291v-37h14.258c4.202 0 7.543 1.128 10.022 3.383 2.48 2.255 3.72 5.286 3.72 9.091 0 3.982-1.369 7.083-4.107 9.303-2.738 2.22-6.19 3.33-10.358 3.33h-7.18V291H729zm6-18h7.296c2.347 0 4.218-.602 5.612-1.806 1.395-1.203 2.092-2.785 2.092-4.746 0-2.063-.689-3.654-2.066-4.771-1.378-1.118-3.257-1.677-5.638-1.677H735v13zm28 17v-38h6v38h-6zm38 .417h-6.263v-3.446c-2.227 2.686-5.202 4.029-8.925 4.029-2.749 0-5.071-.769-6.968-2.306-1.896-1.538-2.844-3.685-2.844-6.442 0-3.004 1.026-5.284 3.08-6.839 2.052-1.555 4.749-2.333 8.09-2.333 2.678 0 5.218.39 7.62 1.167v-.53c0-1.944-.584-3.429-1.75-4.454-1.165-1.025-2.844-1.537-5.036-1.537-2.505 0-5.132.583-7.88 1.75l-1.723-5.143c3.41-1.555 6.907-2.333 10.49-2.333 4.002 0 7.02 1.025 9.056 3.075 2.035 2.05 3.053 4.966 3.053 8.748v16.594zm-6-9.898v-1.482c-1.934-.691-4.1-1.037-6.5-1.037-2.041 0-3.635.362-4.781 1.086-1.146.725-1.719 1.745-1.719 3.062 0 1.185.52 2.124 1.558 2.815 1.038.691 2.346 1.037 3.921 1.037 2.185 0 3.984-.51 5.4-1.53 1.414-1.021 2.121-2.338 2.121-3.951zM817.282 291c-5.22 0-7.83-2.727-7.83-8.182v-14.674H806v-5.49h3.452V255h6.233v7.654H823v5.49h-7.315v13.671c0 2.323 1.116 3.484 3.348 3.484 1.34 0 2.628-.317 3.864-.95v5.226c-1.649.95-3.52 1.425-5.615 1.425zm14.201 0v-22.467H828v-5.352h3.483v-2.014c0-3.109.745-5.422 2.236-6.941 1.455-1.484 3.517-2.226 6.186-2.226 1.768 0 3.466.247 5.095.742v5.405c-1.352-.46-2.582-.69-3.691-.69-2.426 0-3.64 1.414-3.64 4.24v1.537h7.279v5.299h-7.174V291h-6.29zm30.94 0c-4.121 0-7.555-1.403-10.302-4.21-2.747-2.808-4.121-6.229-4.121-10.264 0-4.035 1.39-7.465 4.172-10.29 2.782-2.824 6.233-4.236 10.354-4.236 4.12 0 7.563 1.403 10.327 4.21 2.765 2.808 4.147 6.246 4.147 10.316 0 4-1.39 7.413-4.172 10.237-2.782 2.825-6.25 4.237-10.405 4.237zm.103-5c2.543 0 4.59-.865 6.144-2.594 1.553-1.73 2.33-3.865 2.33-6.406 0-2.506-.812-4.632-2.436-6.38-1.624-1.746-3.672-2.62-6.143-2.62-2.507 0-4.537.865-6.09 2.594-1.554 1.73-2.331 3.865-2.331 6.406 0 2.47.812 4.588 2.436 6.353 1.624 1.765 3.654 2.647 6.09 2.647zM883 290v-27.467h6.286v6.19c1.94-4.681 5.177-6.918 9.714-6.71v6.659h-.364c-2.84 0-5.108.928-6.805 2.783s-2.545 4.552-2.545 8.089V290H883zm22 0v-27.429h6.329v4.156c2.301-3.151 5.108-4.727 8.42-4.727 3.836 0 6.574 1.61 8.212 4.831 2.476-3.22 5.597-4.831 9.363-4.831 3.033 0 5.405.918 7.113 2.753 1.709 1.836 2.563 4.416 2.563 7.74V290h-6.329v-15.584c0-2.182-.488-3.845-1.464-4.987-.977-1.143-2.354-1.715-4.132-1.715-1.779 0-3.208.598-4.29 1.792-1.08 1.195-1.62 2.866-1.62 5.013V290h-6.33v-15.636c0-2.113-.488-3.75-1.464-4.91-.976-1.16-2.354-1.74-4.132-1.74-1.778 0-3.208.615-4.289 1.844-1.08 1.23-1.621 2.9-1.621 5.013V290H905zm78.085 1c-5.752 0-10.78-1.97-15.085-5.911l3.823-4.645c3.616 3.202 7.422 4.803 11.417 4.803 1.963 0 3.521-.43 4.675-1.293 1.154-.862 1.73-2.014 1.73-3.457 0-1.372-.55-2.472-1.652-3.298-1.102-.827-3.272-1.628-6.51-2.402-4.201-1.02-7.258-2.313-9.17-3.879-1.91-1.566-2.867-3.967-2.867-7.204 0-3.167 1.154-5.744 3.462-7.732 2.307-1.988 5.27-2.982 8.885-2.982 4.96 0 9.334 1.548 13.122 4.644l-3.41 4.909c-3.34-2.534-6.612-3.8-9.815-3.8-1.825 0-3.263.422-4.314 1.266-1.05.845-1.575 1.918-1.575 3.22 0 1.442.577 2.56 1.73 3.351 1.154.792 3.436 1.61 6.845 2.454 3.995.986 6.931 2.305 8.809 3.959 1.877 1.653 2.815 3.976 2.815 6.966 0 3.413-1.188 6.105-3.565 8.075-2.376 1.97-5.493 2.956-9.35 2.956zm20.915 0v-37h13.607c5.7 0 10.357 1.753 13.971 5.26 3.615 3.505 5.422 7.919 5.422 13.24 0 5.286-1.816 9.69-5.448 13.214-3.632 3.524-8.28 5.286-13.945 5.286H1004zm6-6h7.244c3.815 0 6.894-1.164 9.239-3.493 2.345-2.328 3.517-5.33 3.517-9.007 0-3.641-1.172-6.635-3.517-8.981-2.345-2.346-5.424-3.519-9.239-3.519H1010v25zm35 6v-37h6.348v18.606L1068.535 254h7.794l-15.02 15.91L1077 291h-7.69l-12.336-16.65-5.626 5.92V291H1045zm54.483 0v-22.467H1096v-5.352h3.483v-2.014c0-3.109.745-5.422 2.236-6.941 1.455-1.484 3.517-2.226 6.186-2.226 1.768 0 3.466.247 5.095.742v5.405c-1.352-.46-2.582-.69-3.691-.69-2.426 0-3.64 1.414-3.64 4.24v1.537h7.279v5.299h-7.174V291h-6.29zm29.94 0c-4.121 0-7.555-1.403-10.302-4.21-2.747-2.808-4.121-6.229-4.121-10.264 0-4.035 1.39-7.465 4.172-10.29 2.782-2.824 6.233-4.236 10.354-4.236 4.12 0 7.563 1.403 10.327 4.21 2.765 2.808 4.147 6.246 4.147 10.316 0 4-1.39 7.413-4.172 10.237-2.782 2.825-6.25 4.237-10.405 4.237zm.103-5c2.543 0 4.59-.865 6.144-2.594 1.553-1.73 2.33-3.865 2.33-6.406 0-2.506-.812-4.632-2.436-6.38-1.624-1.746-3.672-2.62-6.143-2.62-2.507 0-4.537.865-6.09 2.594-1.554 1.73-2.331 3.865-2.331 6.406 0 2.47.812 4.588 2.436 6.353 1.624 1.765 3.654 2.647 6.09 2.647zm21.474 4v-27.467h6.286v6.19c1.94-4.681 5.177-6.918 9.714-6.71v6.659h-.364c-2.84 0-5.108.928-6.805 2.783s-2.545 4.552-2.545 8.089V290H1151zm51.085 1c-5.752 0-10.78-1.97-15.085-5.911l3.823-4.645c3.616 3.202 7.422 4.803 11.417 4.803 1.963 0 3.521-.43 4.675-1.293 1.154-.862 1.73-2.014 1.73-3.457 0-1.372-.55-2.472-1.652-3.298-1.102-.827-3.272-1.628-6.51-2.402-4.201-1.02-7.258-2.313-9.17-3.879-1.91-1.566-2.867-3.967-2.867-7.204 0-3.167 1.154-5.744 3.462-7.732 2.307-1.988 5.27-2.982 8.885-2.982 4.96 0 9.334 1.548 13.122 4.644l-3.41 4.909c-3.34-2.534-6.612-3.8-9.815-3.8-1.825 0-3.263.422-4.314 1.266-1.05.845-1.575 1.918-1.575 3.22 0 1.442.577 2.56 1.73 3.351 1.154.792 3.436 1.61 6.845 2.454 3.995.986 6.931 2.305 8.809 3.959 1.877 1.653 2.815 3.976 2.815 6.966 0 3.413-1.188 6.105-3.565 8.075-2.376 1.97-5.493 2.956-9.35 2.956zm25.926 0L1219 263.105h6.535l5.585 18.981 6.166-19.086h5.428l6.218 19.086 5.692-18.981H1261L1251.883 291h-5.691l-6.218-18.929-6.271 18.929h-5.692zM1266 259v-6h7v6h-7zm1 32v-28h6v28h-6zm15.483 0v-22.467H1279v-5.352h3.483v-2.014c0-3.109.745-5.422 2.236-6.941 1.455-1.484 3.517-2.226 6.186-2.226 1.768 0 3.466.247 5.095.742v5.405c-1.352-.46-2.582-.69-3.691-.69-2.426 0-3.64 1.414-3.64 4.24v1.537h7.279v5.299h-7.174V291h-6.29zm27.799 0c-5.22 0-7.83-2.727-7.83-8.182v-14.674H1299v-5.49h3.452V255h6.233v7.654H1316v5.49h-7.315v13.671c0 2.323 1.116 3.484 3.348 3.484 1.34 0 2.628-.317 3.864-.95v5.226c-1.649.95-3.52 1.425-5.615 1.425z" fill="#CE6230"/><path d="M550.564 290c-3.385 0-6.325-1.307-8.82-3.921-2.496-2.614-3.744-6.15-3.744-10.605 0-4.421 1.24-7.93 3.718-10.527 2.479-2.596 5.427-3.894 8.846-3.894 3.692 0 6.77 1.631 9.23 4.894V251H566v38.421h-6.205v-4.632c-2.393 3.474-5.47 5.211-9.23 5.211zm-4.256-7.488c1.574 1.659 3.462 2.488 5.666 2.488 2.203 0 4.092-.847 5.665-2.541 1.574-1.694 2.361-3.865 2.361-6.512 0-2.612-.787-4.756-2.36-6.432-1.574-1.677-3.463-2.515-5.666-2.515-2.238 0-4.127.82-5.666 2.462-1.539 1.64-2.308 3.838-2.308 6.59 0 2.648.77 4.8 2.308 6.46zM572 290l16.033-37h5.934L610 290h-6.767l-3.696-8.87h-17.23l-3.748 8.87H572zm12-15h13l-6.527-15L584 275zm31 23v-36.418h6.205v4.658c2.393-3.493 5.453-5.24 9.18-5.24 3.418 0 6.376 1.314 8.871 3.943 2.496 2.63 3.744 6.185 3.744 10.666 0 4.412-1.248 7.932-3.744 10.56-2.495 2.63-5.453 3.944-8.871 3.944-3.727 0-6.787-1.64-9.18-4.923V298H615zm14.079-13c2.238 0 4.118-.83 5.639-2.488 1.521-1.66 2.282-3.847 2.282-6.565 0-2.647-.77-4.8-2.308-6.459-1.539-1.659-3.41-2.488-5.613-2.488-2.204 0-4.1.847-5.692 2.541-1.591 1.694-2.387 3.865-2.387 6.512 0 2.612.796 4.756 2.387 6.432 1.591 1.677 3.488 2.515 5.692 2.515zM650 298v-36.418h6.205v4.658c2.393-3.493 5.453-5.24 9.18-5.24 3.418 0 6.376 1.314 8.871 3.943 2.496 2.63 3.744 6.185 3.744 10.666 0 4.412-1.248 7.932-3.744 10.56-2.495 2.63-5.453 3.944-8.871 3.944-3.727 0-6.787-1.64-9.18-4.923V298H650zm14.079-13c2.238 0 4.118-.83 5.639-2.488 1.521-1.66 2.282-3.847 2.282-6.565 0-2.647-.77-4.8-2.308-6.459-1.539-1.659-3.41-2.488-5.613-2.488-2.204 0-4.1.847-5.692 2.541-1.591 1.694-2.387 3.865-2.387 6.512 0 2.612.796 4.756 2.387 6.432 1.591 1.677 3.488 2.515 5.692 2.515zm30.654 5c-4.33 0-8.24-1.396-11.733-4.188l2.829-4.348c3.003 2.298 6.023 3.446 9.061 3.446 1.362 0 2.419-.273 3.17-.821.75-.548 1.126-1.317 1.126-2.307 0-.494-.131-.927-.393-1.298-.262-.372-.725-.716-1.388-1.034-.664-.318-1.222-.548-1.676-.69-.454-.14-1.205-.37-2.253-.689l-.471-.159a29.804 29.804 0 0 1-2.488-.822 19.638 19.638 0 0 1-2.279-1.086c-.838-.46-1.519-.963-2.043-1.511-.524-.548-.96-1.246-1.31-2.094-.348-.849-.523-1.803-.523-2.863 0-2.58.934-4.648 2.802-6.203 1.869-1.555 4.217-2.333 7.046-2.333 3.596 0 6.984 1.06 10.161 3.181l-2.514 4.56c-2.863-1.768-5.465-2.651-7.805-2.651-1.222 0-2.173.265-2.854.795s-1.022 1.237-1.022 2.12c0 .601.306 1.15.917 1.644.611.495 1.222.857 1.833 1.087.611.23 1.598.574 2.96 1.034.07.035.157.07.262.106a.853.853 0 0 0 .262.053c1.222.388 2.252.768 3.09 1.14.838.37 1.72.874 2.645 1.51.926.637 1.633 1.423 2.122 2.36.489.936.733 2.023.733 3.26 0 2.828-.96 5.001-2.881 6.521-1.92 1.52-4.382 2.28-7.386 2.28zM728 290v-37h14.258c4.202 0 7.543 1.128 10.022 3.383 2.48 2.255 3.72 5.286 3.72 9.091 0 3.982-1.369 7.083-4.107 9.303-2.738 2.22-6.19 3.33-10.358 3.33h-7.18V290H728zm6-18h7.296c2.347 0 4.218-.602 5.612-1.806 1.395-1.203 2.092-2.785 2.092-4.746 0-2.063-.689-3.654-2.066-4.771-1.378-1.118-3.257-1.677-5.638-1.677H734v13zm28 17v-38h6v38h-6zm38 .417h-6.263v-3.446c-2.227 2.686-5.202 4.029-8.925 4.029-2.749 0-5.071-.769-6.968-2.306-1.896-1.538-2.844-3.685-2.844-6.442 0-3.004 1.026-5.284 3.08-6.839 2.052-1.555 4.749-2.333 8.09-2.333 2.678 0 5.218.39 7.62 1.167v-.53c0-1.944-.584-3.429-1.75-4.454-1.165-1.025-2.844-1.537-5.036-1.537-2.505 0-5.132.583-7.88 1.75l-1.723-5.143c3.41-1.555 6.907-2.333 10.49-2.333 4.002 0 7.02 1.025 9.056 3.075 2.035 2.05 3.053 4.966 3.053 8.748v16.594zm-6-9.898v-1.482c-1.934-.691-4.1-1.037-6.5-1.037-2.041 0-3.635.362-4.781 1.086-1.146.725-1.719 1.745-1.719 3.062 0 1.185.52 2.124 1.558 2.815 1.038.691 2.346 1.037 3.921 1.037 2.185 0 3.984-.51 5.4-1.53 1.414-1.021 2.121-2.338 2.121-3.951zM816.282 290c-5.22 0-7.83-2.727-7.83-8.182v-14.674H805v-5.49h3.452V254h6.233v7.654H822v5.49h-7.315v13.671c0 2.323 1.116 3.484 3.348 3.484 1.34 0 2.628-.317 3.864-.95v5.226c-1.649.95-3.52 1.425-5.615 1.425zm14.201 0v-22.467H827v-5.352h3.483v-2.014c0-3.109.745-5.422 2.236-6.941 1.455-1.484 3.517-2.226 6.186-2.226 1.768 0 3.466.247 5.095.742v5.405c-1.352-.46-2.582-.69-3.691-.69-2.426 0-3.64 1.414-3.64 4.24v1.537h7.279v5.299h-7.174V290h-6.29zm30.94 0c-4.121 0-7.555-1.403-10.302-4.21-2.747-2.808-4.121-6.229-4.121-10.264 0-4.035 1.39-7.465 4.172-10.29 2.782-2.824 6.233-4.236 10.354-4.236 4.12 0 7.563 1.403 10.327 4.21 2.765 2.808 4.147 6.246 4.147 10.316 0 4-1.39 7.413-4.172 10.237-2.782 2.825-6.25 4.237-10.405 4.237zm.103-5c2.543 0 4.59-.865 6.144-2.594 1.553-1.73 2.33-3.865 2.33-6.406 0-2.506-.812-4.632-2.436-6.38-1.624-1.746-3.672-2.62-6.143-2.62-2.507 0-4.537.865-6.09 2.594-1.554 1.73-2.331 3.865-2.331 6.406 0 2.47.812 4.588 2.436 6.353 1.624 1.765 3.654 2.647 6.09 2.647zM882 289v-27.467h6.286v6.19c1.94-4.681 5.177-6.918 9.714-6.71v6.659h-.364c-2.84 0-5.108.928-6.805 2.783s-2.545 4.552-2.545 8.089V289H882zm22 0v-27.429h6.329v4.156c2.301-3.151 5.108-4.727 8.42-4.727 3.836 0 6.574 1.61 8.212 4.831 2.476-3.22 5.597-4.831 9.363-4.831 3.033 0 5.405.918 7.113 2.753 1.709 1.836 2.563 4.416 2.563 7.74V289h-6.329v-15.584c0-2.182-.488-3.845-1.464-4.987-.977-1.143-2.354-1.715-4.132-1.715-1.779 0-3.208.598-4.29 1.792-1.08 1.195-1.62 2.866-1.62 5.013V289h-6.33v-15.636c0-2.113-.488-3.75-1.464-4.91-.976-1.16-2.354-1.74-4.132-1.74-1.778 0-3.208.615-4.289 1.844-1.08 1.23-1.621 2.9-1.621 5.013V289H904zm78.085 1c-5.752 0-10.78-1.97-15.085-5.911l3.823-4.645c3.616 3.202 7.422 4.803 11.417 4.803 1.963 0 3.521-.43 4.675-1.293 1.154-.862 1.73-2.014 1.73-3.457 0-1.372-.55-2.472-1.652-3.298-1.102-.827-3.272-1.628-6.51-2.402-4.201-1.02-7.258-2.313-9.17-3.879-1.91-1.566-2.867-3.967-2.867-7.204 0-3.167 1.154-5.744 3.462-7.732 2.307-1.988 5.27-2.982 8.885-2.982 4.96 0 9.334 1.548 13.122 4.644l-3.41 4.909c-3.34-2.534-6.612-3.8-9.815-3.8-1.825 0-3.263.422-4.314 1.266-1.05.845-1.575 1.918-1.575 3.22 0 1.442.577 2.56 1.73 3.351 1.154.792 3.436 1.61 6.845 2.454 3.995.986 6.931 2.305 8.809 3.959 1.877 1.653 2.815 3.976 2.815 6.966 0 3.413-1.188 6.105-3.565 8.075-2.376 1.97-5.493 2.956-9.35 2.956zm20.915 0v-37h13.607c5.7 0 10.357 1.753 13.971 5.26 3.615 3.505 5.422 7.919 5.422 13.24 0 5.286-1.816 9.69-5.448 13.214-3.632 3.524-8.28 5.286-13.945 5.286H1003zm6-6h7.244c3.815 0 6.894-1.164 9.239-3.493 2.345-2.328 3.517-5.33 3.517-9.007 0-3.641-1.172-6.635-3.517-8.981-2.345-2.346-5.424-3.519-9.239-3.519H1009v25zm35 6v-37h6.348v18.606L1067.535 253h7.794l-15.02 15.91L1076 290h-7.69l-12.336-16.65-5.626 5.92V290H1044zm54.483 0v-22.467H1095v-5.352h3.483v-2.014c0-3.109.745-5.422 2.236-6.941 1.455-1.484 3.517-2.226 6.186-2.226 1.768 0 3.466.247 5.095.742v5.405c-1.352-.46-2.582-.69-3.691-.69-2.426 0-3.64 1.414-3.64 4.24v1.537h7.279v5.299h-7.174V290h-6.29zm29.94 0c-4.121 0-7.555-1.403-10.302-4.21-2.747-2.808-4.121-6.229-4.121-10.264 0-4.035 1.39-7.465 4.172-10.29 2.782-2.824 6.233-4.236 10.354-4.236 4.12 0 7.563 1.403 10.327 4.21 2.765 2.808 4.147 6.246 4.147 10.316 0 4-1.39 7.413-4.172 10.237-2.782 2.825-6.25 4.237-10.405 4.237zm.103-5c2.543 0 4.59-.865 6.144-2.594 1.553-1.73 2.33-3.865 2.33-6.406 0-2.506-.812-4.632-2.436-6.38-1.624-1.746-3.672-2.62-6.143-2.62-2.507 0-4.537.865-6.09 2.594-1.554 1.73-2.331 3.865-2.331 6.406 0 2.47.812 4.588 2.436 6.353 1.624 1.765 3.654 2.647 6.09 2.647zm21.474 4v-27.467h6.286v6.19c1.94-4.681 5.177-6.918 9.714-6.71v6.659h-.364c-2.84 0-5.108.928-6.805 2.783s-2.545 4.552-2.545 8.089V289H1150zm51.085 1c-5.752 0-10.78-1.97-15.085-5.911l3.823-4.645c3.616 3.202 7.422 4.803 11.417 4.803 1.963 0 3.521-.43 4.675-1.293 1.154-.862 1.73-2.014 1.73-3.457 0-1.372-.55-2.472-1.652-3.298-1.102-.827-3.272-1.628-6.51-2.402-4.201-1.02-7.258-2.313-9.17-3.879-1.91-1.566-2.867-3.967-2.867-7.204 0-3.167 1.154-5.744 3.462-7.732 2.307-1.988 5.27-2.982 8.885-2.982 4.96 0 9.334 1.548 13.122 4.644l-3.41 4.909c-3.34-2.534-6.612-3.8-9.815-3.8-1.825 0-3.263.422-4.314 1.266-1.05.845-1.575 1.918-1.575 3.22 0 1.442.577 2.56 1.73 3.351 1.154.792 3.436 1.61 6.845 2.454 3.995.986 6.931 2.305 8.809 3.959 1.877 1.653 2.815 3.976 2.815 6.966 0 3.413-1.188 6.105-3.565 8.075-2.376 1.97-5.493 2.956-9.35 2.956zm25.926 0L1218 262.105h6.535l5.585 18.981 6.166-19.086h5.428l6.218 19.086 5.692-18.981H1260L1250.883 290h-5.691l-6.218-18.929-6.271 18.929h-5.692zM1265 258v-6h7v6h-7zm1 32v-28h6v28h-6zm15.483 0v-22.467H1278v-5.352h3.483v-2.014c0-3.109.745-5.422 2.236-6.941 1.455-1.484 3.517-2.226 6.186-2.226 1.768 0 3.466.247 5.095.742v5.405c-1.352-.46-2.582-.69-3.691-.69-2.426 0-3.64 1.414-3.64 4.24v1.537h7.279v5.299h-7.174V290h-6.29zm27.799 0c-5.22 0-7.83-2.727-7.83-8.182v-14.674H1298v-5.49h3.452V254h6.233v7.654H1315v5.49h-7.315v13.671c0 2.323 1.116 3.484 3.348 3.484 1.34 0 2.628-.317 3.864-.95v5.226c-1.649.95-3.52 1.425-5.615 1.425z" fill="#FFF"/></g><g fill-rule="nonzero"><path d="M93.516 1h230.542c11.218 0 22.11 1.796 32.679 5.552 15.283 5.551 29.102 15.348 39.507 28.084 10.568 12.736 17.56 28.41 19.998 44.739.975 6.041 1.138 12.083 1.138 18.124V323.317c0 7.185-.325 14.532-1.788 21.553-3.252 16.165-10.893 31.35-21.949 43.596-10.893 12.246-25.2 21.39-40.646 26.289-9.43 2.939-19.184 4.245-29.102 4.245-4.39 0-231.03 0-234.444-.163-16.583-.817-33.004-6.205-46.824-15.512-13.494-9.144-24.55-21.88-31.703-36.575-6.179-12.573-9.268-26.615-9.268-40.657V93.907c-.325-13.879 2.602-27.594 8.617-40.004 6.991-14.695 17.884-27.594 31.379-36.738 13.82-9.47 30.077-15.022 46.66-15.838C89.94 1 91.728 1 93.517 1z" fill="#CE6230"/><path d="M92.376 0h230.542c11.219 0 22.112 1.796 32.68 5.552C370.88 11.103 384.7 20.9 395.104 33.636c10.568 12.736 17.559 28.41 19.998 44.739.975 6.041 1.138 12.083 1.138 18.124V322.317c0 7.185-.325 14.532-1.789 21.553-3.251 16.165-10.893 31.35-21.948 43.596-10.893 12.246-25.2 21.39-40.646 26.289-9.43 2.939-19.185 4.245-29.102 4.245-4.39 0-231.03 0-234.444-.163-16.584-.817-33.005-6.205-46.824-15.512-13.495-9.144-24.55-21.88-31.704-36.575C3.606 353.177.517 339.135.517 325.093V92.907C.192 79.028 3.118 65.313 9.134 52.903c6.99-14.695 17.884-27.594 31.378-36.738C54.332 6.695 70.59 1.143 87.174.327 88.799 0 90.588 0 92.376 0z" fill="url(#b)" transform="translate(.14)"/><path d="M351.476 341.902c-1.462-2.286-3.087-4.572-4.875-6.694-4.062-4.899-8.774-9.144-13.974-12.736-6.5-4.408-14.137-7.184-21.936-7.51-5.525-.327-11.05.653-16.25 2.612-5.2 1.796-10.237 4.408-15.112 7.02-5.687 2.94-11.374 5.879-17.386 8.328-7.15 2.939-14.625 5.225-22.262 6.858-9.587 1.796-19.336 2.449-28.923 2.285-17.387-.326-34.774-2.939-51.348-7.837-14.624-4.408-28.599-10.45-41.76-18.124-11.537-6.694-22.262-14.368-32.336-23.022-8.288-7.184-15.925-14.858-23.074-23.022a251.93 251.93 0 0 1-13.975-17.96c-1.787-2.45-3.412-5.062-4.874-7.674L.493 197.892V92.578C.493 41.472 41.603 0 92.463 0h82.059l60.772 62.045c137.144 93.721 92.783 197.076 92.783 197.076s38.998 44.085 23.4 82.781z" fill="url(#c)" transform="translate(.14)"/><path d="M235.41 62.108c137.278 93.708 92.874 197.048 92.874 197.048s39.036 44.242 23.26 82.934c0 0-16.103-27.1-43.103-27.1-26.024 0-41.314 27.1-93.687 27.1-116.62 0-171.76-97.79-171.76-97.79 105.073 69.383 176.802 20.244 176.802 20.244-47.331-27.59-148.012-159.5-148.012-159.5 87.669 74.934 125.566 94.688 125.566 94.688-22.608-18.774-86.042-110.523-86.042-110.523 50.747 51.588 151.59 123.583 151.59 123.583 28.627-79.668-27.487-150.684-27.487-150.684z" fill="#FFF"/></g><path d="M1566 300.56c0-50.567 41.048-91.56 91.684-91.56H1775v116.173c0 50.567-41.048 91.56-91.684 91.56H1566V300.56z" fill="#CE6230" fill-rule="nonzero"/><path d="M1 92.56C1 41.993 42.048 1 92.684 1H210v116.173c0 50.567-41.048 91.56-91.684 91.56H1V92.56z" fill="url(#d)" fill-rule="nonzero" transform="translate(1566 209)"/><path d="M1618.954 282.32l50.21 28.245v57.523l-39.185-32.751 7.624-4.4 28.685 19.596v-38.285l-33.387-18.748 2.776 34.096-7.724 4.434-9-49.71zm54.084-21.69v9.155l31.408 15.172-33.276 18.7-33.237-18.694 31.296-15.145v-9.187l-48.306 18.11 50.214 28.225 50.207-28.225-48.306-18.11zm41.259 71.397l9.016-49.708-50.21 28.241v57.528l39.2-32.754-7.587-4.38-28.684 19.598v-38.309l33.321-18.73-2.717 34.1 7.66 4.414z" fill="#FFF"/></g></svg>