<svg xmlns="http://www.w3.org/2000/svg" viewBox="0 0 2111.89 911.67"><defs><style>.cls-1{fill:#000;stroke:#fff;stroke-width:3}</style></defs><title>LogoTessHor</title><g id="Layer_2" data-name="Layer 2"><g id="Layer_1-2" data-name="Layer 1"><g id="Layer_1-2-2" data-name="Layer 1-2"><path class="cls-1" d="M807.68,102.44l239.19,134.82V511.94L860.14,355.57l36.32-21,136.65,93.55V245.33L874.26,155.82l13.21,162.79L850.69,339.8ZM1065,0V43.75l149.5,72.54-158.39,89.33-158.3-89.33,149-72.36V0L816.94,86.58,1056,221.4,1295,86.58Zm196.27,339.8,42.92-237.36L1065,237.26V511.94l186.73-156.37-36.13-20.91L1079,428.21V245.33l158.66-89.42-13,162.79Z"/><path class="cls-1" d="M77.7,907.47V702.37H0v-39.9H198.8v39.9H121.1v205.1Z"/><path class="cls-1" d="M244.3,907.47v-245H426V701H287.35v63.7H410.2v38.5H287.35V869H427.7v38.5Z"/><path class="cls-1" d="M564.55,911q-58.45,0-102.2-39.2l25.9-30.8Q525,872.83,565.6,872.82q19.95,0,31.67-8.57T609,841.32q0-13.65-11.2-21.87t-44.1-15.93Q511,793.38,491.57,777.8T472.15,730q0-31.5,23.45-51.27T555.8,659q50.4,0,88.9,30.8l-23.1,32.55q-34-25.2-66.5-25.2-18.55,0-29.23,8.4T515.2,726.87q0,14.36,11.72,22.23t46.38,16.27q40.59,9.81,59.67,26.25t19.08,46.2q0,34-24.15,53.55T564.55,911Z"/><path class="cls-1" d="M785.05,911q-58.45,0-102.2-39.2l25.9-30.8q36.75,31.86,77.35,31.85,19.95,0,31.67-8.57t11.73-22.93q0-13.65-11.2-21.87t-44.1-15.93q-42.71-10.14-62.13-25.72T692.65,730q0-31.5,23.45-51.27T776.3,659q50.4,0,88.9,30.8l-23.1,32.55q-34-25.2-66.5-25.2-18.55,0-29.23,8.4T735.7,726.87q0,14.36,11.72,22.23t46.38,16.27q40.59,9.81,59.67,26.25t19.08,46.2q0,34-24.15,53.55T785.05,911Z"/><path class="cls-1" d="M923.3,907.47v-245H1105V701H966.35v63.7H1089.2v38.5H966.35V869H1106.7v38.5Z"/><path class="cls-1" d="M1157.8,907.47v-245H1267q42.69,0,66.85,21.18T1358,740.52q0,29.06-15.75,47.78t-42.7,26.42l66.15,92.75H1315l-60.9-85.4h-53.2v85.4Zm43-123.55h63q23.1,0,36.75-11.2t13.65-30.45q0-19.59-13.3-30.1t-37.45-10.5H1200.8Z"/><path class="cls-1" d="M1389.85,907.47l107.8-246.75h39.9l107.8,246.75h-45.5L1575,848.32H1459.15L1434,907.47Zm85.05-97.3h84.35l-42.35-98Z"/><path class="cls-1" d="M1786,911.67q-53.2,0-88.9-36.57T1661.44,785q0-53.19,35.7-90t90.65-36.75q31.85,0,54.08,9.8a147.87,147.87,0,0,1,41.82,28.35L1856,728.27q-32.89-30.45-68.6-30.45-35,0-57.92,25.2t-22.93,62q0,36.4,23.1,61.78t57.75,25.37q21,0,37.1-7.87t33.25-24l27.65,28q-20.65,21.71-43.75,32.55T1786,911.67Z"/><path class="cls-1" d="M1990.79,907.47V702.37h-77.7v-39.9h198.8v39.9h-77.7v205.1Z"/></g></g></g></svg>