<svg xmlns="http://www.w3.org/2000/svg" viewBox="0 0 2807.59 511.94"><defs><style>.cls-1{fill:#000;stroke:#fff;stroke-width:3}</style></defs><title>LogoTessVer</title><g id="Layer_2" data-name="Layer 2"><g id="Layer_1-2" data-name="Layer 1"><g id="Layer_1-2-2" data-name="Layer 1-2"><path class="cls-1" d="M0,102.44,239.19,237.26V511.94L52.46,355.57l36.32-21,136.65,93.55V245.33L66.58,155.82,79.79,318.61,43,339.8ZM257.35,0V43.75l149.49,72.54L248.45,205.62,90.15,116.29l149-72.36V0L9.26,86.58l239,134.82L487.37,86.58ZM453.61,339.8l42.93-237.36L257.35,237.26V511.94L444.08,355.57l-36.14-20.91L271.29,428.21V245.33L430,155.91,417,318.7Z"/><path class="cls-1" d="M773.4,375V169.87H695.7V130H894.5v39.9H816.8V375Z"/><path class="cls-1" d="M940,375V130h181.65v38.5H983.05v63.7H1105.9v38.5H983.05v65.8H1123.4V375Z"/><path class="cls-1" d="M1260.25,378.47q-58.45,0-102.2-39.2l25.9-30.8q36.75,31.86,77.35,31.85,20,0,31.68-8.57t11.72-22.93q0-13.65-11.2-21.87T1249.4,271q-42.7-10.14-62.12-25.72t-19.43-47.78q0-31.5,23.45-51.27t60.2-19.78q50.4,0,88.9,30.8l-23.1,32.55q-33.94-25.2-66.5-25.2-18.55,0-29.22,8.4t-10.68,21.35q0,14.35,11.73,22.23T1269,232.87q40.61,9.81,59.68,26.25t19.07,46.2q0,34-24.15,53.55T1260.25,378.47Z"/><path class="cls-1" d="M1480.75,378.47q-58.45,0-102.2-39.2l25.9-30.8q36.75,31.86,77.35,31.85,20,0,31.68-8.57t11.72-22.93q0-13.65-11.2-21.87T1469.9,271q-42.7-10.14-62.12-25.72t-19.43-47.78q0-31.5,23.45-51.27t60.2-19.78q50.4,0,88.9,30.8l-23.1,32.55q-33.94-25.2-66.5-25.2-18.55,0-29.22,8.4t-10.68,21.35q0,14.35,11.73,22.23t46.37,16.27q40.61,9.81,59.68,26.25t19.07,46.2q0,34-24.15,53.55T1480.75,378.47Z"/><path class="cls-1" d="M1619,375V130h181.65v38.5h-138.6v63.7H1784.9v38.5H1662.05v65.8H1802.4V375Z"/><path class="cls-1" d="M1853.5,375V130h109.2q42.71,0,66.85,21.18T2053.7,208q0,29.06-15.75,47.78t-42.7,26.42L2061.4,375h-50.75l-60.9-85.4h-53.2V375Zm43-123.55h63q23.1,0,36.75-11.2T2010,209.77q0-19.59-13.3-30.1t-37.45-10.5H1896.6Z"/><path class="cls-1" d="M2085.55,375l107.8-246.75h39.9L2341.05,375h-45.5l-24.85-59.15H2154.85L2129.65,375Zm85-97.3H2255l-42.35-98Z"/><path class="cls-1" d="M2481.75,379.17q-53.2,0-88.9-36.57t-35.7-90.13q0-53.19,35.7-89.95t90.65-36.75q31.85,0,54.07,9.8a147.78,147.78,0,0,1,41.83,28.35l-27.65,31.85q-32.91-30.45-68.6-30.45-35,0-57.93,25.2t-22.92,61.95q0,36.41,23.1,61.78t57.75,25.37q21,0,37.1-7.87t33.25-24l27.65,28q-20.66,21.71-43.75,32.55T2481.75,379.17Z"/><path class="cls-1" d="M2686.49,375V169.87h-77.7V130h198.8v39.9h-77.7V375Z"/></g></g></g></svg>